<svg id="visual" viewBox="0 0 900 600" width="900" height="600" xmlns="http://www.w3.org/2000/svg" xmlns:xlink="http://www.w3.org/1999/xlink" version="1.1"><rect x="0" y="0" width="900" height="600" fill="#fff"></rect><defs><linearGradient id="grad1_0" x1="33.3%" y1="100%" x2="100%" y2="0%"><stop offset="20%" stop-color="#ffffff" stop-opacity="1"></stop><stop offset="80%" stop-color="#ffffff" stop-opacity="1"></stop></linearGradient></defs><defs><linearGradient id="grad2_0" x1="0%" y1="100%" x2="66.7%" y2="0%"><stop offset="20%" stop-color="#ffffff" stop-opacity="1"></stop><stop offset="80%" stop-color="#ffffff" stop-opacity="1"></stop></linearGradient></defs><g transform="translate(900, 600)"><path d="M-324.5 0C-316.5 -27 -308.5 -53.9 -300.4 -80.5C-292.3 -107.1 -284.1 -133.3 -266.7 -154C-249.4 -174.7 -222.8 -190 -197.3 -197.3C-171.8 -204.6 -147.3 -203.9 -130.5 -226C-113.7 -248.2 -104.5 -293.2 -84 -313.4C-63.5 -333.7 -31.8 -329.1 0 -324.5L0 0Z" fill="#1A67EB"></path></g><g transform="translate(0, 0)"><path d="M324.5 0C291.6 19.8 258.8 39.7 256 68.6C253.2 97.5 280.5 135.6 277.1 160C273.8 184.4 239.8 195.3 217.8 217.8C195.8 240.3 185.8 274.4 162.2 281C138.7 287.7 101.5 266.8 72.2 269.5C42.9 272.2 21.5 298.3 0 324.5L0 0Z" fill="#1A67EB"></path></g></svg>